<svg xmlns="http://www.w3.org/2000/svg" xmlns:xlink="http://www.w3.org/1999/xlink" fill="none" viewBox="0 0 274 407"><defs><path id="a" fill="#8D523A" d="M94.982 183.226s-45.246 9.068-54.627 8.48c-.575 0 .091-1.307-.405-1.307-.497 0-1.882-.117-2.195-.196-.68-.17 0-1.594-.523-1.881-.718-.445-2.378.143-2.482-.641-.131-1.006.953-1.62 1.398-2.613.248-.535-.523-1.176 0-1.803a16.27 16.27 0 0 1 1.306-1.476c4.652-4.534 13.81-9.081 15.535-9.943 2.404-1.202 12.23-1.855 19.677-1.307a174.76 174.76 0 0 1 17.469 2.195l4.847 10.492Z"/><path id="c" fill="#8E523A" d="m174.683 94.3 27.346-2.364-5.409-34.964-25.217 2.365 3.28 34.963Z"/><path id="e" fill="#8E523A" d="M208.824 30.318c.326-4.991-.758-17.652-9.826-24.995-4.155-3.37-9.982-4.782-18.135-5.318a32.661 32.661 0 0 0-18.226 5.161c-1.816 1.464-7.369 3.371-6.089 23.061.666 10.453.183 13.066-.353 21.115-.536 8.048 4.626 18.004 19.834 17.56 15.208-.445 22.59-7.931 26.667-14.974a48.227 48.227 0 0 0 6.128-21.61Z"/><path id="g" fill="#E8EAED" d="M230.499 197.245c.078-.288-60.991-.288-61.174 0-16.554 1.032-47.624-2.222-74.03 14.973-15.835 10.309-19.794 41.026-23.335 55.79-7.604 31.645-9.97 28.261-13.236 44.006h110.98c-7.918-22.957-5.514-28.98-11.942-43.927-.261-.627 89.396-.68 89.396-.68 24.302-24.89-9.591-66.086-16.659-70.162Z"/></defs><path fill="#8D523A" d="M134.741 176.393c10.139-41.183 19.925-71.457 15.94-84.052-5.879-18.214-24.171 22.225-24.171 22.225l-18.031 57.306s19.755 30.913 26.262 4.521Z"/><path fill="#8D523A" d="M62.698 170.369S37.65 181.71 53.552 185.46c11.759 2.757 37.969 6.533 66.713 3.92 22.93-1.999 3.802-18.514 3.802-18.514l-61.37-.497Z"/><use xlink:href="#a"/><mask id="b" width="61" height="22" x="34" y="170" maskUnits="userSpaceOnUse" style="mask-type:alpha"><use xlink:href="#a"/></mask><g stroke="#202124" stroke-linecap="round" stroke-linejoin="round" stroke-width=".34" mask="url(#b)"><path d="M50.572 182.638c-8.414 2.404-15.678 6.01-18.03 8.427m18.03-12.033c-8.414 2.404-15.678 6.01-18.03 8.415m18.03-1.202c-8.414 2.404-15.678 6.023-18.03 8.427" opacity=".5"/></g><path fill="#FBBC05" d="M115.116 193.691c6.023 0 13.249-4.09 16.162-7.448 14.621-16.985 18.919-76.63 19.089-90.153.105-8.427-1.097-13.236-9.969-6.611-6.454 4.808-12.765 18.631-12.765 18.631-4.952 10.557-20.905 59.776-20.905 59.776s-16.986.431-16.986.405l-7.003 24.668s30.09.732 32.377.732Z"/><path stroke="#202124" stroke-linecap="round" stroke-miterlimit="10" stroke-width=".56" d="M204.656 45.317s6.533-5.226 13.967 2.613"/><path fill="#000" d="M186.898 35.714a10.714 10.714 0 0 1 17.678 8.1 10.678 10.678 0 0 1 8.976 10.99 10.663 10.663 0 0 1 9.355 12.033c2.94.078 12.216 4.534 14.281 6.938 3.841 4.507 2.247 15.548-2.261 19.402-2.012 1.712-6.598 2.613-9.041 2.613-.392 2.417-1.607-2.757-3.619-1.045-4.508 3.92-11.276 10.779-15.117 6.285-2.065-2.404-6.05-12.922-5.671-15.836a10.672 10.672 0 0 1-10.452-11.119 10.689 10.689 0 0 1-9.447-10.583 33.535 33.535 0 0 1 5.292-27.725l.026-.053Z"/><path stroke="#202124" stroke-linecap="round" stroke-miterlimit="10" stroke-width=".56" d="M155.255 10.131s-.954 7.134 1.306 7.657c2.261.522-4.56-.092-6.323-4.181"/><use xlink:href="#c"/><mask id="d" width="32" height="39" x="171" y="56" maskUnits="userSpaceOnUse" style="mask-type:alpha"><use xlink:href="#c"/></mask><g mask="url(#d)"><path fill="#000" d="m146.997 84.75 75.298-38.23-9.904-18.802-75.297 38.23 9.903 18.801Z" opacity=".5"/></g><use xlink:href="#e"/><mask id="f" width="53" height="67" x="156" y="0" maskUnits="userSpaceOnUse" style="mask-type:alpha"><use xlink:href="#e"/></mask><g mask="url(#f)"><path fill="#000" d="M145.612 29.86c2.143 2.143 9.643-13.431 23.231-14.92 9.839-1.072 20.513 3.188 22.081 20.304.719 7.839.392 14.372 2.783 19.729 4.273 9.642 16.802 7.238 16.802 7.238s45.913-60.716 11.825-76.147c-34.088-15.43-68.164-19.912-72.828-4.86-4.665 15.052-6.01 46.527-3.894 48.656Z"/></g><path stroke="#202124" stroke-linecap="round" stroke-miterlimit="10" stroke-width=".56" d="M172.068 52.4s-6.35 2.612-10.531-.301"/><path stroke="#202124" stroke-linecap="round" stroke-miterlimit="10" stroke-width=".62" d="M166.426 37.047s-6.638 4.18-5.462 6.768c1.176 2.587 5.501 1.855 5.501 1.855"/><path fill="#000" d="M176.084 37.973c-.606-.017-1.064-1.177-1.024-2.59.04-1.414.563-2.547 1.169-2.53.606.018 1.065 1.178 1.025 2.591-.04 1.414-.564 2.546-1.17 2.53Zm-16.275 1.474c-.606-.017-1.065-1.177-1.025-2.59.04-1.415.564-2.547 1.17-2.53.606.017 1.064 1.177 1.024 2.591-.04 1.414-.563 2.546-1.169 2.529Z"/><path stroke="#202124" stroke-linecap="round" stroke-miterlimit="10" stroke-width=".56" d="M180.85 30.945c-1.568-1.006-6.664-1.79-8.297-.235m-7.239.235c-1.62-.902-6.755-1.307-8.296.287"/><path fill="#8E523A" d="M187.181 43.164c-.922-2.203 1.163-5.175 4.658-6.638 3.495-1.462 7.075-.862 7.997 1.342.922 2.203-1.163 5.175-4.658 6.637-3.494 1.463-7.075.862-7.997-1.34Z"/><path fill="#E8EAED" d="M192.517 47.852a1.803 1.803 0 1 1 0-3.606 1.803 1.803 0 0 1 0 3.606Z"/><path stroke="#202124" stroke-linecap="round" stroke-miterlimit="10" stroke-width=".62" d="M196.279 38.928s-4.259 3.201-3.201 2.143c1.059-1.059 2.143 1.058 2.143 1.058"/><path fill="#8D523A" d="M169.771 197.52h56.718l11.929-91.917s-4.273-12.805-12.804-18.136c-6.298-2.704-14.373-4.612-22.447-9.146-5.409-3.606-27.242-3.92-33.318-.901-6.075 3.018-13.392 4.821-21.872 8.858-6.533 3.162 21.794 111.242 21.794 111.242Z"/><path fill="#8D523A" d="m148.615 380.791 21.964-.235L144.356 263.2s59.697 9.538 94.987-1.202c27.647-8.415 1.202-64.924-14.058-64.479-11.198.339-38.701 0-38.701 0s-81.569 6.532-93.158 28.326c-11.59 21.794 55.189 154.946 55.189 154.946Z"/><path fill="#8D523A" d="M169.77 197.52c-.157-.445-82.118 1.175-89.004 42.332a870.025 870.025 0 0 1-35.813 140.94h21.624l59.749-127.208s121.433 6.011 121.433-4.808c2.404-26.458-21.637-51.701-21.637-51.701"/><path fill="#1F60F3" d="M174.5 406.427h-9.002l-1.803-8.114-9.003 8.114s-32.402.888-32.402 0c0-8.114 14.372-17.117 16.201-18.907 1.829-1.79 10.74-7.212 10.74-7.212l21.349.249 3.92 25.87Zm-104.291-.249h-9.028l-1.803-8.101-9.003 8.101s-32.416.901-32.416 0c0-8.101 14.373-17.104 16.215-18.907 1.842-1.803 10.727-7.199 10.727-7.199h21.702l3.606 26.106Z"/><use xlink:href="#g"/><mask id="h" width="198" height="116" x="58" y="197" maskUnits="userSpaceOnUse" style="mask-type:alpha"><use xlink:href="#g"/></mask><g stroke="#fff" stroke-miterlimit="10" stroke-width="1.03" mask="url(#h)"><path d="M165.394 280.63c-6.01-18.031 28.862-26.445 37.276-33.657 7.84-6.742 20.448-38.479 6.154-58.326"/><path d="M161.786 328.724s-18.37-49.44-3.606-75.781c7.591-13.51 52.903-9.616 44.031-64.335M69.817 328.123S84.49 241.889 96.693 225.78c12.204-16.11 71.862-28.262 71.862-28.262"/><path d="M85.445 328.123s14.686-86.234 26.876-102.343c12.19-16.11 65.851-28.262 65.851-28.262"/><path d="M102.272 328.123s14.685-86.234 26.876-102.343c12.19-16.11 57.489-28.262 57.489-28.262"/><path d="M123.897 332.931s6.259-86.233 18.462-102.343 50.211-33.07 50.211-33.07"/><path d="M143.155 332.931s-2.156-86.233 13.654-96.333c15.809-10.1 41.34-33.213 41.81-39.08m28.104 83.112c21.637-31.253 15.966-63.891.745-84.77"/><path d="M205.074 273.418s36.114-48.095 16.816-84.771"/></g><path stroke="#80868B" stroke-linecap="round" stroke-linejoin="round" stroke-width=".92" d="m161.787 251.755-3.371 16.254s.967-5.436 3.371-6.638"/><path fill="#FBBC05" d="M169.324 197.245c.262.222 58.182.64 58.626 0 8.624-12.02 1.137-64.597 1.137-64.597s31.723-28.117-2.404-45.18c-6.298-2.705-14.372-4.613-22.46-9.147-5.396-3.606-27.242-3.92-33.305-.901-6.532 3.292-14.476 4.52-24.824 9.08-6.533 2.914-3.998 38.871-4.155 36.741 6.023 35.356 10.831 60.573 27.385 74.004Z"/><path stroke="#F29900" stroke-linecap="round" stroke-linejoin="round" stroke-width="1.38" d="M226.684 132.649a30.426 30.426 0 0 0 2.129-15.313m-83.854 22.629a74.38 74.38 0 0 1-1.202-20.448m85.03 77.088h-59.018m60.547-7.357H220.7m10.818-24.041-16.829 2.404"/><path fill="#80868B" d="M101.893 189.732h83.412a.395.395 0 0 1 .294.114.41.41 0 0 1 .124.291v.209a3.837 3.837 0 0 1-.973 2.537 3.833 3.833 0 0 1-2.411 1.252l-77.088.47c-1.868 0-3.384-2.495-3.384-4.259l.026-.614Z"/><path fill="#9AA0A6" d="M135.094 194.266H46.679a1.533 1.533 0 0 1-1.49-1.202l-7.003-31.227-.236-.967-.823-3.358-7.303-30.365a1.528 1.528 0 0 1 1.49-1.894h90.936a1.532 1.532 0 0 1 1.503 1.228l12.843 65.969a1.539 1.539 0 0 1-1.502 1.816Z"/><path fill="#D1D2D3" d="m133.331 194.266-88.415.627c-1.307-.627-1.96-1.124-2.117-1.829l-7.003-31.227-.235-.967-.81-3.358-7.356-30.378a1.528 1.528 0 0 1 1.49-1.894h90.976a1.511 1.511 0 0 1 1.502 1.228l12.844 65.969c.144.966-.536 1.228-.876 1.829Z"/><path fill="#fff" d="M63.977 124.756 34.33 157.028l-7.814-32.272h37.46Zm5.761 0-34.362 36.597-.236-.967 33.462-35.63h1.136Z" opacity=".6"/><path fill="#8D523A" d="M268.69 172.146c-11.929-40.687-28.287-72.71-38.06-81.595-14.255-12.779-8.937 29.084-8.937 29.084l18.736 60.951s35.905 17.6 28.261-8.44Z"/><path fill="#8D523A" d="M192.555 167.965s-19.036 13.745-3.175 17.495c11.76 2.757 37.891 4.233 66.714 2.783 27.346-1.307 3.802-18.514 3.802-18.514l-67.341-1.764Z"/><path fill="#8D523A" d="M214.051 183.225s-15.823 3.096-21.559 3.018c-4.285 0-22.486 4.847-31.854 4.259-.575 0 .092-1.306-.418-1.306-.509 0-1.881-.118-2.182-.196-.679-.17 0-1.594-.522-1.882-.732-.444-2.378.144-2.496-.64-.131-1.006.967-1.62 1.398-2.613.261-.536-.523-1.176 0-1.803.405-.518.842-1.011 1.307-1.477 4.664-4.533 13.823-7.839 15.548-8.741 2.404-1.202 12.229-4.259 19.677-3.762a84.742 84.742 0 0 1 17.468 3.397l3.633 11.746Z"/><mask id="i" width="60" height="23" x="155" y="168" maskUnits="userSpaceOnUse" style="mask-type:alpha"><path fill="#8D523A" d="M214.049 183.225s-15.823 3.096-21.559 3.018c-4.285 0-22.486 4.847-31.854 4.259-.575 0 .092-1.306-.418-1.306-.509 0-1.881-.118-2.182-.196-.679-.17 0-1.594-.522-1.882-.732-.444-2.378.144-2.496-.64-.131-1.006.967-1.62 1.398-2.613.261-.536-.523-1.176 0-1.803.405-.518.842-1.011 1.307-1.477 4.664-4.533 13.823-7.839 15.548-8.741 2.404-1.202 12.229-4.259 19.677-3.762a84.764 84.764 0 0 1 17.469 3.397l3.632 11.746Z"/></mask><g stroke="#202124" stroke-linecap="round" stroke-linejoin="round" stroke-width=".34" mask="url(#i)"><path d="M170.814 181.434c-8.427 2.404-15.678 6.01-18.043 8.428m18.043-12.034c-8.427 2.404-15.678 6.011-18.043 8.415m18.043-1.202c-8.427 2.404-15.678 6.023-18.043 8.427" opacity=".5"/></g><path fill="#FBBC05" d="M250.986 192.49c6.024 0 14.451-2.888 17.365-6.246 8.113-9.394 5.461-16.227.823-28.966-3.345-9.146-28.627-57.594-32.233-62.402-3.606-4.808-13.928-10.818-20.788-6.611-6.859 4.207-9.146 12.882-9.146 12.882 11.145 20.461 20.317 47.481 28.327 65.525-1.673-1.307-20.514.431-20.553.405l6.22 24.655c27.686.758 27.137.758 29.985.758Z"/><path stroke="#F29900" stroke-linecap="round" stroke-linejoin="round" stroke-width="1.38" d="M231.531 157.996c-3.501-1.202-16.358-33.239-15.94-38.257"/><path stroke="#EFF0F2" stroke-miterlimit="10" stroke-width="1.38" d="M185.33 194.567H.176"/></svg>